<svg enable-background="new 0 0 32 32" height="512" viewBox="0 0 32 32" width="512" xmlns="http://www.w3.org/2000/svg"><path d="m26 32h-20c-3.314 0-6-2.686-6-6v-20c0-3.314 2.686-6 6-6h20c3.314 0 6 2.686 6 6v20c0 3.314-2.686 6-6 6z" fill="#ffe6e2"/><path d="m22.167 11.333h-2.833v-1.5c0-.643-.523-1.167-1.167-1.167h-8.167c0-.368-.299-.666-.667-.666s-.666.298-.666.667v.5 7.333 6.833c0 .369.298.667.666.667s.667-.298.667-.667v-6.333h2.333v1.5c0 .643.523 1.167 1.167 1.167h8.667c.643 0 1.167-.523 1.167-1.167v-6c-.001-.643-.524-1.167-1.167-1.167z" fill="#fc573b"/></svg>